<svg id="Capa_1" enable-background="new 0 0 512 512" height="512" viewBox="0 0 512 512" width="512" xmlns="http://www.w3.org/2000/svg"><g><path d="m377.636 56.838h-243.272c-70.065 0-126.864 56.799-126.864 126.864v57.272c0 70.065 56.799 126.864 126.864 126.864h186.563c22.583 0 42.945 13.595 51.602 34.453l21.039 50.694c1.204 2.901 5.314 2.901 6.518 0l26.002-62.652c9.167-22.089 23.007-41.847 40.127-58.547 23.619-23.039 38.285-55.212 38.285-90.813v-57.272c0-70.064-56.799-126.863-126.864-126.863z" fill="#f6e266"/><path d="m377.636 56.838h-29.485c70.065 0 126.864 56.799 126.864 126.864v57.272c0 35.601-14.666 67.775-38.285 90.813-17.12 16.699-30.959 36.458-40.127 58.547l-14.518 34.982 11.484 27.67c1.204 2.901 5.314 2.901 6.518 0l26.002-62.652c9.167-22.089 23.007-41.847 40.127-58.547 23.619-23.039 38.285-55.212 38.285-90.813v-57.272c-.001-70.065-56.8-126.864-126.865-126.864z" fill="#f1d333"/><g fill="#454045"><path d="m70.174 114.62v.567c0 7.165 5.808 12.973 12.973 12.973 3.267 0 6.125 2.196 6.967 5.352l3.253 12.196c.577 2.164 3.469 2.619 4.659.721 6.482-10.331 10.296-21.069 9.828-32.46-.297-7.219-6.304-12.891-13.53-12.891h-10.61c-7.478.001-13.54 6.064-13.54 13.542z"/><path d="m130.285 114.62v.567c0 7.165 5.808 12.973 12.973 12.973 3.267 0 6.125 2.196 6.967 5.352l3.253 12.196c.577 2.164 3.469 2.619 4.659.721 6.482-10.331 10.296-21.069 9.828-32.46-.297-7.219-6.304-12.891-13.53-12.891h-10.61c-7.477.001-13.54 6.064-13.54 13.542z"/></g><g fill="#454045"><path d="m343.995 290.592v.567c0 7.165 5.808 12.973 12.973 12.973 3.267 0 6.125 2.196 6.967 5.352l3.253 12.196c.577 2.164 3.469 2.619 4.659.721 6.482-10.331 10.296-21.069 9.828-32.46-.297-7.219-6.304-12.891-13.53-12.891h-10.61c-7.478.001-13.54 6.063-13.54 13.542z"/><path d="m404.106 290.592v.567c0 7.165 5.808 12.973 12.973 12.973 3.267 0 6.125 2.196 6.967 5.352l3.253 12.196c.577 2.164 3.469 2.619 4.659.721 6.482-10.331 10.297-21.069 9.828-32.46-.297-7.219-6.304-12.891-13.53-12.891h-10.61c-7.477.001-13.54 6.063-13.54 13.542z"/></g><g><path d="m95.867 155.124c3.425 0 6.657-1.75 8.513-4.708 7.881-12.561 11.469-24.583 10.968-36.754-.463-11.262-9.697-20.083-21.023-20.083h-10.61c-11.602 0-21.041 9.439-21.041 21.041v.567c0 11.214 9.064 20.352 20.25 20.472l3.196 11.982c1.188 4.453 5.218 7.483 9.747 7.483zm-18.193-39.937v-.567c0-3.331 2.71-6.041 6.041-6.041h10.61c3.253 0 5.904 2.503 6.036 5.7.23 5.602-.772 11.269-3.047 17.127-1.773-6.336-7.573-10.746-14.167-10.746-3.018 0-5.473-2.455-5.473-5.473z"/><path d="m154.437 93.579h-10.61c-11.602 0-21.041 9.439-21.041 21.041v.567c0 11.214 9.064 20.352 20.25 20.472l3.196 11.982c1.187 4.452 5.217 7.482 9.746 7.482 3.425 0 6.657-1.75 8.513-4.708 7.881-12.561 11.469-24.583 10.968-36.754-.462-11.261-9.697-20.082-21.022-20.082zm2.988 37.827c-1.773-6.336-7.572-10.746-14.167-10.746-3.018 0-5.473-2.455-5.473-5.473v-.567c0-3.331 2.71-6.041 6.041-6.041h10.61c3.253 0 5.904 2.503 6.036 5.7.231 5.602-.772 11.269-3.047 17.127z"/><path d="m368.146 269.551h-10.61c-11.603 0-21.041 9.438-21.041 21.041v.567c0 11.214 9.063 20.352 20.251 20.472l3.195 11.982c1.185 4.444 5.209 7.482 9.747 7.482 3.426 0 6.658-1.75 8.514-4.707 7.881-12.563 11.468-24.585 10.968-36.755-.464-11.261-9.699-20.082-21.024-20.082zm2.988 37.828c-1.772-6.338-7.572-10.747-14.166-10.747-3.019 0-5.474-2.455-5.474-5.473v-.567c0-3.331 2.71-6.041 6.041-6.041h10.61c3.253 0 5.904 2.504 6.035 5.7.233 5.602-.77 11.27-3.046 17.128z"/><path d="m416.857 311.631 3.195 11.982c1.185 4.444 5.209 7.482 9.747 7.482 3.426 0 6.658-1.75 8.514-4.707 7.881-12.563 11.468-24.585 10.968-36.755-.464-11.262-9.698-20.083-21.023-20.083h-10.61c-11.603 0-21.041 9.438-21.041 21.041v.567c-.001 11.215 9.062 20.353 20.25 20.473zm-5.251-21.039c0-3.331 2.71-6.041 6.041-6.041h10.61c3.253 0 5.904 2.504 6.035 5.7.231 5.602-.771 11.27-3.047 17.128-1.772-6.338-7.572-10.747-14.166-10.747-3.019 0-5.474-2.455-5.474-5.473v-.567z"/><path d="m412.384 146.709c4.143 0 7.5-3.358 7.5-7.5s-3.357-7.5-7.5-7.5h-214.32c-4.142 0-7.5 3.358-7.5 7.5s3.358 7.5 7.5 7.5z"/><path d="m85.866 175.505c0 4.142 3.358 7.5 7.5 7.5h319.019c4.143 0 7.5-3.358 7.5-7.5s-3.357-7.5-7.5-7.5h-319.019c-4.142 0-7.5 3.358-7.5 7.5z"/><path d="m93.366 219.3h319.019c4.143 0 7.5-3.358 7.5-7.5s-3.357-7.5-7.5-7.5h-319.019c-4.142 0-7.5 3.358-7.5 7.5s3.358 7.5 7.5 7.5z"/><path d="m419.884 248.096c0-4.142-3.357-7.5-7.5-7.5h-319.018c-4.142 0-7.5 3.358-7.5 7.5s3.358 7.5 7.5 7.5h319.019c4.142 0 7.499-3.358 7.499-7.5z"/><path d="m93.366 276.892c-4.142 0-7.5 3.357-7.5 7.5s3.358 7.5 7.5 7.5h216.047c4.143 0 7.5-3.357 7.5-7.5s-3.357-7.5-7.5-7.5z"/><path d="m377.636 49.338h-199.791c-4.142 0-7.5 3.358-7.5 7.5s3.358 7.5 7.5 7.5h199.792c65.817 0 119.363 53.547 119.363 119.364v57.271c0 32.441-12.793 62.786-36.022 85.444-18.376 17.925-32.445 38.462-41.816 61.04l-22.334 53.813-17.371-41.855c-2.795-6.733-6.7-12.889-11.608-18.295-2.785-3.066-7.528-3.294-10.595-.511-3.066 2.784-3.295 7.527-.511 10.594 3.747 4.127 6.728 8.824 8.86 13.962l21.039 50.694c1.714 4.132 5.713 6.801 10.186 6.801s8.472-2.669 10.186-6.801l26.002-62.652c8.589-20.693 21.521-39.552 38.438-56.052 26.145-25.505 40.546-59.663 40.546-96.181v-57.271c0-74.089-60.276-134.365-134.364-134.365z"/><path d="m338.144 362.728c-5.616-1.586-11.409-2.391-17.218-2.391h-186.562c-65.818 0-119.364-53.546-119.364-119.363v-57.271c0-65.817 53.546-119.364 119.364-119.364h13.494c4.142 0 7.5-3.358 7.5-7.5s-3.358-7.5-7.5-7.5h-13.494c-74.089-.001-134.364 60.275-134.364 134.363v57.271c0 74.088 60.275 134.363 134.364 134.363h186.563c4.43 0 8.851.614 13.14 1.826 3.975 1.122 8.127-1.182 9.257-5.179 1.125-3.985-1.194-8.129-5.18-9.255z"/></g></g></svg>